# xmcd
#
# Track frame offsets: 
#        150
#        10810
#        22330
#        32835
#        44172
#        54622
#        66937
#        78737
#        87280
#        99997
#        112155
#        122987
#        133132
#        143082
#        154117
#        165812
#        175445
#        187882
#        201577
#        213522
#
# Disc length: 2984 seconds
#
# Revision: 2
# Processed by: cddbd v1.5.2PL0 Copyright (c) Steve Scherf et al.
# Submitted via: ExactAudioCopyFreeDBPlugin 1.0
#
DISCID=2b0ba614
DTITLE=Various Artist - Crescent City Soul:  Finger Poppin' and Stomp
DTITLE=in' Feet
DYEAR=2002
DGENRE=Rhythm and Blues
TTITLE0=The Showmen - It Will Stand
TTITLE1=Ernie K. Doe - Mother-in-Law
TTITLE2=Aaron Neville - Over You
TTITLE3=Allen and Allen - Heavenly Baby
TTITLE4=Jessie Hill - Ooh-Poo-Pah-Doo (Part 1)
TTITLE5=Ernie K. Doe - Tain't It The Truth
TTITLE6=Irma Thomas - Cry On
TTITLE7=Allen Orange - True Love Never Dies
TTITLE8=Aaron Neville - Let's Live
TTITLE9=Ernie K-Doe - Te-Ta-Te-Ta-Ta
TTITLE10=Jessie Hill - Whip it on Me
TTITLE11=Benny Spellman - Fortune Teller
TTITLE12=Ernie K-Doe - I Cried My Last Tear
TTITLE13=Benny Spellman - Lipstick Traces
TTITLE14=The Del Royals - Always Naggin'
TTITLE15=Irma Thomas - It's Raining
TTITLE16=Ernie K-Doe - A Certain Girl
TTITLE17=The Showmen - 39-21-46
TTITLE18=Irma Thomas - Ruler of My Heart
TTITLE19=Jessie Hill - Ooh-Poo-Pah-Doo (Part 2)
EXTD=
EXTT0=
EXTT1=
EXTT2=
EXTT3=
EXTT4=
EXTT5=
EXTT6=
EXTT7=
EXTT8=
EXTT9=
EXTT10=
EXTT11=
EXTT12=
EXTT13=
EXTT14=
EXTT15=
EXTT16=
EXTT17=
EXTT18=
EXTT19=
PLAYORDER=
